<svg version="1.1" xmlns="http://www.w3.org/2000/svg" viewBox="0 0 1438.83984375 522" width="1438.83984375" height="522">
  <!-- svg-source:excalidraw -->
  
  <defs>
    <style class="style-fonts">
      @font-face {
        font-family: "Virgil";
        src: url("https://excalidraw.com/Virgil.woff2");
      }
      @font-face {
        font-family: "Cascadia";
        src: url("https://excalidraw.com/Cascadia.woff2");
      }
      @font-face {
        font-family: "Assistant";
        src: url("https://excalidraw.com/Assistant-Regular.woff2");
      }
    </style>
    
  </defs>
  <rect x="0" y="0" width="1438.83984375" height="522" fill="#ffffff"></rect><g stroke-linecap="round" transform="translate(842 13) rotate(0 89.5 21)"><path d="M68.91 0.62 C81.42 -0.46, 99.26 0.48, 112.53 1.13 C125.8 1.78, 138.21 2.31, 148.51 4.53 C158.81 6.75, 169.24 11.41, 174.33 14.44 C179.43 17.48, 181.15 19.78, 179.08 22.75 C177.01 25.73, 170 29.3, 161.92 32.28 C153.84 35.25, 142.62 38.84, 130.59 40.6 C118.57 42.36, 103.6 43.06, 89.78 42.83 C75.96 42.6, 60.14 40.77, 47.66 39.24 C35.19 37.71, 22.74 36.42, 14.94 33.66 C7.14 30.89, 2.23 26.02, 0.87 22.63 C-0.48 19.25, 2.02 16.39, 6.83 13.35 C11.63 10.32, 17.02 6.8, 29.7 4.43 C42.39 2.07, 72.1 -0.22, 82.95 -0.83 C93.8 -1.45, 94.78 0.12, 94.82 0.73 M58.04 1.29 C69.74 -0.16, 87.55 -1.05, 101.26 -0.64 C114.97 -0.22, 128.78 1.65, 140.3 3.76 C151.82 5.87, 163.73 9.33, 170.37 12.01 C177.02 14.69, 180.69 16.45, 180.16 19.85 C179.63 23.25, 174.09 29.38, 167.21 32.44 C160.33 35.49, 150.3 36.74, 138.87 38.2 C127.44 39.66, 112.26 40.76, 98.62 41.19 C84.98 41.62, 69.7 42.04, 57 40.78 C44.3 39.53, 31.53 36.11, 22.41 33.67 C13.29 31.24, 5.49 29.33, 2.29 26.17 C-0.91 23, -0.45 17.94, 3.23 14.68 C6.92 11.41, 15.03 8.94, 24.38 6.59 C33.74 4.24, 53.63 1.18, 59.39 0.56 C65.14 -0.06, 58.48 2.46, 58.91 2.85" stroke="#1e1e1e" stroke-width="2" fill="none"></path></g><g stroke-linecap="round" transform="translate(850.5 166) rotate(0 89.5 21)"><path d="M60.27 0.64 C72.26 -0.87, 88.38 -1.27, 101.91 -0.61 C115.44 0.05, 130.21 2.43, 141.45 4.6 C152.7 6.78, 163.15 9.48, 169.37 12.42 C175.58 15.35, 179.14 19.23, 178.75 22.21 C178.36 25.19, 173.88 27.54, 167.02 30.3 C160.16 33.06, 149.18 36.95, 137.59 38.76 C126 40.58, 111.24 40.76, 97.48 41.2 C83.72 41.64, 67.95 42.46, 55.04 41.4 C42.12 40.34, 28.74 37.6, 19.97 34.82 C11.2 32.05, 5.19 28.01, 2.4 24.76 C-0.39 21.51, -0.43 18.25, 3.24 15.34 C6.9 12.44, 13.42 9.83, 24.41 7.32 C35.39 4.82, 60.53 1.57, 69.16 0.29 C77.78 -0.99, 75.93 -0.74, 76.16 -0.35 M83.89 0.93 C97.06 0.62, 113.99 1.97, 126.9 3.15 C139.81 4.32, 153.13 5.51, 161.35 7.97 C169.57 10.43, 173.77 14.73, 176.23 17.9 C178.7 21.06, 180.07 23.85, 176.14 26.97 C172.2 30.08, 162.65 34.43, 152.6 36.56 C142.56 38.7, 129.12 39.18, 115.88 39.78 C102.64 40.38, 86.72 40.83, 73.16 40.19 C59.61 39.54, 45.38 37.78, 34.57 35.93 C23.77 34.08, 13.99 32.02, 8.34 29.08 C2.69 26.14, -0.41 21.35, 0.67 18.26 C1.76 15.17, 7.67 13.29, 14.84 10.53 C22.02 7.78, 31.88 3.44, 43.7 1.72 C55.51 -0.01, 78.74 0.5, 85.76 0.21 C92.79 -0.09, 86.09 -0.52, 85.85 -0.05" stroke="#1e1e1e" stroke-width="2" fill="none"></path></g><g stroke-linecap="round"><g transform="translate(841 31) rotate(0 4.5 80)"><path d="M-0.52 -1.2 C1.09 25.51, 7.33 133.94, 8.73 160.91 M1.41 0.79 C2.91 27.11, 6.17 132.96, 7.65 159.27" stroke="#1e1e1e" stroke-width="2" fill="none"></path></g></g><mask></mask><g stroke-linecap="round"><g transform="translate(1023 32) rotate(0 4 78.5)"><path d="M0.61 0.9 C1.79 27.24, 6.51 132.09, 7.86 157.99 M-0.53 0.32 C0.42 26.36, 5.37 130.23, 6.84 156.38" stroke="#1e1e1e" stroke-width="2" fill="none"></path></g></g><mask></mask><g transform="translate(882 222) rotate(0 40.553985595703125 22.5)"><text x="0" y="31.536" font-family="Virgil, Segoe UI Emoji" font-size="36px" fill="#1e1e1e" text-anchor="start" style="white-space: pre;" direction="ltr" dominant-baseline="alphabetic">dbms</text></g><g transform="translate(10 62) rotate(0 347.54388427734375 225)"><text x="0" y="31.536" font-family="Virgil, Segoe UI Emoji" font-size="36px" fill="#1e1e1e" text-anchor="start" style="white-space: pre;" direction="ltr" dominant-baseline="alphabetic">database management system (dbms)</text><text x="0" y="76.536" font-family="Virgil, Segoe UI Emoji" font-size="36px" fill="#1e1e1e" text-anchor="start" style="white-space: pre;" direction="ltr" dominant-baseline="alphabetic">    relational dbms (rdbms)</text><text x="0" y="121.536" font-family="Virgil, Segoe UI Emoji" font-size="36px" fill="#1e1e1e" text-anchor="start" style="white-space: pre;" direction="ltr" dominant-baseline="alphabetic">        - oracle database (79)</text><text x="0" y="166.536" font-family="Virgil, Segoe UI Emoji" font-size="36px" fill="#1e1e1e" text-anchor="start" style="white-space: pre;" direction="ltr" dominant-baseline="alphabetic">        - IBM DB2, Informix</text><text x="0" y="211.536" font-family="Virgil, Segoe UI Emoji" font-size="36px" fill="#1e1e1e" text-anchor="start" style="white-space: pre;" direction="ltr" dominant-baseline="alphabetic">        - Microsoft SQL Server (mssql)</text><text x="0" y="256.536" font-family="Virgil, Segoe UI Emoji" font-size="36px" fill="#1e1e1e" text-anchor="start" style="white-space: pre;" direction="ltr" dominant-baseline="alphabetic">        - PostgreSQL</text><text x="0" y="301.536" font-family="Virgil, Segoe UI Emoji" font-size="36px" fill="#1e1e1e" text-anchor="start" style="white-space: pre;" direction="ltr" dominant-baseline="alphabetic">        - mysql</text><text x="0" y="346.536" font-family="Virgil, Segoe UI Emoji" font-size="36px" fill="#1e1e1e" text-anchor="start" style="white-space: pre;" direction="ltr" dominant-baseline="alphabetic">            =&gt; fork: mariadb</text><text x="0" y="391.536" font-family="Virgil, Segoe UI Emoji" font-size="36px" fill="#1e1e1e" text-anchor="start" style="white-space: pre;" direction="ltr" dominant-baseline="alphabetic">        - sqlite (no server)</text><text x="0" y="436.536" font-family="Virgil, Segoe UI Emoji" font-size="36px" fill="#1e1e1e" text-anchor="start" style="white-space: pre;" direction="ltr" dominant-baseline="alphabetic">        langage/standard SQL</text></g><g stroke-linecap="round" transform="translate(1222 82) rotate(0 50 43)"><path d="M39.39 0.48 C47.39 -1.55, 57.69 0.29, 66.07 3.09 C74.45 5.89, 84.16 11.24, 89.67 17.27 C95.17 23.29, 98.27 31.62, 99.1 39.25 C99.93 46.87, 98.63 56.08, 94.66 62.99 C90.68 69.9, 83.17 76.79, 75.27 80.68 C67.38 84.57, 56.38 86.82, 47.28 86.33 C38.19 85.84, 27.96 82.42, 20.7 77.75 C13.45 73.08, 7.13 65.54, 3.75 58.31 C0.38 51.09, -1.28 42.01, 0.45 34.38 C2.19 26.75, 7.32 18.14, 14.19 12.55 C21.05 6.95, 36.39 2.69, 41.64 0.81 C46.89 -1.07, 45.31 0.66, 45.68 1.26 M28.38 5.52 C35.48 1.96, 46.06 0.43, 54.93 1.31 C63.8 2.2, 74.5 5.95, 81.61 10.85 C88.71 15.75, 94.64 23.53, 97.57 30.72 C100.5 37.9, 101.37 46.5, 99.17 53.98 C96.98 61.46, 91.05 70.46, 84.39 75.61 C77.72 80.75, 68.43 83.66, 59.16 84.84 C49.9 86.03, 37.38 85.69, 28.81 82.71 C20.24 79.73, 12.46 73.38, 7.74 66.99 C3.02 60.59, 0.3 51.89, 0.48 44.35 C0.67 36.81, 4.45 28.38, 8.85 21.72 C13.24 15.06, 23.42 6.96, 26.86 4.38 C30.3 1.8, 28.65 5.61, 29.49 6.26" stroke="#1e1e1e" stroke-width="2" fill="none"></path></g><g stroke-linecap="round"><g transform="translate(1206 130) rotate(0 -82 -0.5)"><path d="M-0.09 0.11 C-27.08 -0.29, -135.83 -1.65, -163.02 -1.88 M-1.6 -0.87 C-28.57 -1.2, -136.46 -0.94, -163.45 -0.8" stroke="#1e1e1e" stroke-width="2" fill="none"></path></g><g transform="translate(1206 130) rotate(0 -82 -0.5)"><path d="M-139.98 -9.43 C-144.68 -5.99, -151.26 -4.49, -163.45 -0.8 M-139.98 -9.43 C-146.01 -6.43, -153.22 -4.06, -163.45 -0.8" stroke="#1e1e1e" stroke-width="2" fill="none"></path></g><g transform="translate(1206 130) rotate(0 -82 -0.5)"><path d="M-139.93 7.67 C-144.71 7.52, -151.3 5.43, -163.45 -0.8 M-139.93 7.67 C-146.08 5.89, -153.3 3.46, -163.45 -0.8" stroke="#1e1e1e" stroke-width="2" fill="none"></path></g></g><mask></mask><g transform="translate(1244 10) rotate(0 57.77998352050781 22.5)"><text x="0" y="31.536" font-family="Virgil, Segoe UI Emoji" font-size="36px" fill="#1e1e1e" text-anchor="start" style="white-space: pre;" direction="ltr" dominant-baseline="alphabetic">Python</text></g><g transform="translate(1235 203) rotate(0 96.919921875 75)"><text x="0" y="17.52" font-family="Virgil, Segoe UI Emoji" font-size="20px" fill="#1e1e1e" text-anchor="start" style="white-space: pre;" direction="ltr" dominant-baseline="alphabetic">PEP 249</text><text x="0" y="42.519999999999996" font-family="Virgil, Segoe UI Emoji" font-size="20px" fill="#1e1e1e" text-anchor="start" style="white-space: pre;" direction="ltr" dominant-baseline="alphabetic">module compliant</text><text x="0" y="67.52" font-family="Virgil, Segoe UI Emoji" font-size="20px" fill="#1e1e1e" text-anchor="start" style="white-space: pre;" direction="ltr" dominant-baseline="alphabetic">- psycopg2</text><text x="0" y="92.52" font-family="Virgil, Segoe UI Emoji" font-size="20px" fill="#1e1e1e" text-anchor="start" style="white-space: pre;" direction="ltr" dominant-baseline="alphabetic">- pymysql</text><text x="0" y="117.52" font-family="Virgil, Segoe UI Emoji" font-size="20px" fill="#1e1e1e" text-anchor="start" style="white-space: pre;" direction="ltr" dominant-baseline="alphabetic">- mariadb connector</text><text x="0" y="142.52" font-family="Virgil, Segoe UI Emoji" font-size="20px" fill="#1e1e1e" text-anchor="start" style="white-space: pre;" direction="ltr" dominant-baseline="alphabetic">- ..</text></g><g stroke-linecap="round"><g transform="translate(419 314) rotate(0 396.6043583191862 -18.385852991034028)"><path d="M-0.86 -0.18 C131.51 -6.55, 661.58 -31.89, 793.73 -37.83 M0.89 -1.32 C133.2 -7.62, 660.82 -30.79, 793.05 -36.84" stroke="#f08c00" stroke-width="1" fill="none"></path></g><g transform="translate(419 314) rotate(0 396.6043583191862 -18.385852991034028)"><path d="M769.96 -27.25 C775.59 -28.7, 780.1 -34.03, 793.05 -36.84 M769.96 -27.25 C779.31 -31.09, 787.95 -34.27, 793.05 -36.84" stroke="#f08c00" stroke-width="1" fill="none"></path></g><g transform="translate(419 314) rotate(0 396.6043583191862 -18.385852991034028)"><path d="M769.2 -44.33 C775.09 -41.36, 779.79 -42.29, 793.05 -36.84 M769.2 -44.33 C778.9 -41.66, 787.83 -38.3, 793.05 -36.84" stroke="#f08c00" stroke-width="1" fill="none"></path></g></g><mask></mask></svg>